<svg width="138" height="48" viewBox="0 0 138 48" fill="none" xmlns="http://www.w3.org/2000/svg">
<g clip-path="url(#clip0_941_2453)" filter="url(#filter0_d_941_2453)">
<path fill-rule="evenodd" clip-rule="evenodd" d="M70.9761 39.8708C75.5178 39.8708 78.5437 35.2863 78.5437 27.55V7.75824H73.5758V27.239C73.5758 30.8412 72.7446 32.6252 71.0025 32.6252C69.3211 32.6252 68.6013 30.7989 68.6013 27.239V7.75824H63.607V27.55C63.6136 35.4578 66.3787 39.8708 70.9747 39.8708H70.9761ZM85.9187 22.3456H85.0063V14.8324H86.3171C88.5191 14.8324 89.5758 15.9016 89.5758 18.5204C89.5685 21.3633 88.3748 22.3456 85.9187 22.3456ZM91.8532 9.48961C90.4809 7.98238 88.8552 7.75824 86.7147 7.75824H79.9776V39.3791H84.944V29.1956H86.372C88.4847 29.1956 90.0833 28.9703 91.3736 27.7741C93.3969 25.8621 94.5979 22.4851 94.5979 18.3912C94.5979 14.4264 93.6584 11.4451 91.8532 9.48961ZM122.069 21.7681L129.636 39.3802H134V7.75824H129.04V25.3269L121.582 7.75824H117.101V39.3802H122.069V21.7681ZM51.9027 32.1334C49.1031 32.1334 46.5642 28.3082 46.5642 23.3279C46.5642 18.7011 48.9317 15.0153 51.9642 15.0153C54.8187 15.0153 57.1928 18.7011 57.1928 23.3291C57.1855 28.4797 54.8187 32.1346 51.9027 32.1346V32.1334ZM59.1817 11.8511C57.2126 8.82748 54.6466 7.18188 51.9298 7.18188C49.0482 7.18188 46.5305 8.74171 44.5335 11.8088C42.5373 14.8747 41.4462 18.8829 41.4462 23.2422C41.4462 27.9125 42.4209 31.8235 44.3285 34.9878C46.324 38.279 48.8973 39.9669 51.8953 39.9669C54.722 39.9669 57.4052 38.2367 59.3736 35.0312C61.2885 31.963 62.3174 27.9125 62.3174 23.3828C62.3247 19.0533 61.2402 15.0039 59.1817 11.8511ZM105.705 32.1334C102.907 32.1334 100.368 28.3082 100.368 23.3279C100.368 18.7011 102.742 15.0153 105.767 15.0153C108.621 15.0153 110.996 18.7011 110.996 23.3291C110.988 28.4797 108.615 32.1346 105.705 32.1346V32.1334ZM112.984 11.8511C111.016 8.82748 108.443 7.18188 105.733 7.18188C102.844 7.18188 100.334 8.74171 98.337 11.8088C96.34 14.8747 95.2496 18.8829 95.2496 23.2422C95.2496 27.9125 96.2236 31.8235 98.1305 34.9878C100.135 38.279 102.7 39.9669 105.699 39.9669C108.526 39.9669 111.208 38.2367 113.177 35.0312C115.091 31.963 116.121 27.9125 116.121 23.3828C116.128 19.0533 115.042 15.0039 112.984 11.8511ZM6.87432 34.9763C8.87056 38.2675 11.4168 40.0001 14.4148 40.0001C17.872 40.0001 21.1249 37.3275 23.0662 32.9248C24.2393 30.2523 24.8091 27.2287 24.8091 23.671C24.8091 23.0077 24.7812 22.2919 24.7541 21.5749H13.1867V27.8908H18.9843C17.9818 30.6491 16.3012 32.1655 14.4148 32.1655C11.6152 32.1655 9.10417 28.2979 9.10417 23.2639C9.10417 18.7228 11.4439 14.9502 14.4148 14.9502C16.0134 14.9502 17.3235 15.9771 18.586 18.0184H24.2393C22.6136 11.253 18.813 7.1167 14.4763 7.1167C11.5947 7.1167 9.08293 8.71998 7.08009 11.787C5.08384 14.8552 4.00004 18.8623 4.00004 23.2216C3.99272 27.9022 4.96009 31.8132 6.87432 34.9775V34.9763ZM31.9995 22.3456H31.0314V14.8324H32.4037C34.5992 14.8324 35.6559 15.9016 35.6559 18.5204C35.6559 21.3633 34.4549 22.3456 31.9995 22.3456ZM36.0813 28.522C38.9629 27.2721 40.6787 23.456 40.6787 18.3386C40.6787 14.4275 39.7377 11.4451 37.9341 9.48961C36.5617 7.98238 34.936 7.75824 32.7948 7.75824H26.0576V39.3791H31.0248V29.1956L34.9082 39.3791H41.0485L36.0813 28.522Z" fill="black"/>
</g>
<defs>
<filter id="filter0_d_941_2453" x="0" y="0" width="138" height="55" filterUnits="userSpaceOnUse" color-interpolation-filters="sRGB">
<feFlood flood-opacity="0" result="BackgroundImageFix"/>
<feColorMatrix in="SourceAlpha" type="matrix" values="0 0 0 0 0 0 0 0 0 0 0 0 0 0 0 0 0 0 127 0" result="hardAlpha"/>
<feOffset dy="4"/>
<feGaussianBlur stdDeviation="2"/>
<feComposite in2="hardAlpha" operator="out"/>
<feColorMatrix type="matrix" values="0 0 0 0 0 0 0 0 0 0 0 0 0 0 0 0 0 0 0.25 0"/>
<feBlend mode="normal" in2="BackgroundImageFix" result="effect1_dropShadow_941_2453"/>
<feBlend mode="normal" in="SourceGraphic" in2="effect1_dropShadow_941_2453" result="shape"/>
</filter>
<clipPath id="clip0_941_2453">
<rect width="130" height="47" fill="white" transform="translate(4)"/>
</clipPath>
</defs>
</svg>
